<?xml version="1.0" encoding="utf-8"?>
<!-- Generator: Adobe Illustrator 23.0.5, SVG Export Plug-In . SVG Version: 6.00 Build 0)  -->
<svg version="1.1" id="Layer_1" xmlns="http://www.w3.org/2000/svg" xmlns:xlink="http://www.w3.org/1999/xlink" x="0px" y="0px"
	 viewBox="0 0 20 20" style="enable-background:new 0 0 20 20;" xml:space="preserve">
<style type="text/css">
	.st0{fill:#FFFFFF;}
</style>
<path class="st0" d="M19,18H1c-0.3,0-0.5,0.1-0.7,0.3C0.1,18.5,0,18.7,0,19s0.1,0.5,0.3,0.7C0.5,19.9,0.7,20,1,20h18
	c0.3,0,0.5-0.1,0.7-0.3S20,19.3,20,19s-0.1-0.5-0.3-0.7S19.3,18,19,18L19,18z"/>
<path class="st0" d="M1,2h18c0.3,0,0.5-0.1,0.7-0.3C19.9,1.5,20,1.3,20,1s-0.1-0.5-0.3-0.7C19.5,0.1,19.3,0,19,0H1
	C0.7,0,0.5,0.1,0.3,0.3C0.1,0.5,0,0.7,0,1s0.1,0.5,0.3,0.7C0.5,1.9,0.7,2,1,2z"/>
<path class="st0" d="M1,11h18c0.3,0,0.5-0.1,0.7-0.3c0.2-0.2,0.3-0.4,0.3-0.7s-0.1-0.5-0.3-0.7C19.5,9.1,19.3,9,19,9H1
	C0.7,9,0.5,9.1,0.3,9.3C0.1,9.5,0,9.7,0,10s0.1,0.5,0.3,0.7C0.5,10.9,0.7,11,1,11z"/>
</svg>
